<?xml version="1.0" encoding="UTF-8" standalone="no"?>
<!DOCTYPE svg PUBLIC "-//W3C//DTD SVG 1.1//EN" "http://www.w3.org/Graphics/SVG/1.1/DTD/svg11.dtd">
<svg width="100%" height="100%" viewBox="0 0 920 175" version="1.1" xmlns="http://www.w3.org/2000/svg" xmlns:xlink="http://www.w3.org/1999/xlink" xml:space="preserve" xmlns:serif="http://www.serif.com/" style="fill-rule:evenodd;clip-rule:evenodd;stroke-linejoin:round;stroke-miterlimit:2;">
    <g id="Layer-1" serif:id="Layer 1" transform="matrix(1,0,0,1,-84.3304,-91.6326)">
        <g transform="matrix(1,0,0,1,338.176,209.571)">
            <path d="M0,-83.128C0,-87.968 3.843,-91.953 8.825,-91.953L10.676,-91.953C14.946,-91.953 17.365,-89.818 19.786,-86.829L69.605,-22.348L69.605,-83.555C69.605,-88.253 73.449,-92.096 78.146,-92.096C82.986,-92.096 86.829,-88.253 86.829,-83.555L86.829,0.143C86.829,4.982 83.128,8.826 78.289,8.826L77.576,8.826C73.449,8.826 70.887,6.69 68.466,3.559L17.224,-62.773L17.224,0.428C17.224,5.125 13.38,8.968 8.683,8.968C3.843,8.968 0,5.125 0,0.428L0,-83.128Z" style="fill:rgb(80,79,77);fill-rule:nonzero;"/>
        </g>
        <g transform="matrix(1,0,0,1,490.912,170.285)">
            <path d="M0,20.497L0,15.373C-4.413,13.665 -10.249,12.384 -17.082,12.384C-28.185,12.384 -34.732,17.081 -34.732,24.909L-34.732,25.194C-34.732,32.454 -28.326,36.582 -20.071,36.582C-8.683,36.582 0,30.034 0,20.497M-51.529,25.906L-51.529,25.621C-51.529,9.394 -38.86,1.423 -20.498,1.423C-12.099,1.423 -6.121,2.704 -0.285,4.555L-0.285,2.704C-0.285,-7.972 -6.833,-13.665 -18.932,-13.665C-25.479,-13.665 -30.889,-12.527 -35.586,-10.676C-36.583,-10.391 -37.436,-10.249 -38.291,-10.249C-42.276,-10.249 -45.55,-13.38 -45.55,-17.366C-45.55,-20.498 -43.415,-23.202 -40.853,-24.198C-33.736,-26.903 -26.476,-28.611 -16.654,-28.611C-5.41,-28.611 2.989,-25.622 8.255,-20.213C13.807,-14.804 16.369,-6.833 16.369,2.989L16.369,39.998C16.369,44.695 12.668,48.254 7.971,48.254C2.989,48.254 -0.428,44.838 -0.428,40.995L-0.428,38.147C-5.551,44.268 -13.38,49.108 -24.91,49.108C-39.002,49.108 -51.529,40.995 -51.529,25.906" style="fill:rgb(80,79,77);fill-rule:nonzero;"/>
        </g>
        <g transform="matrix(1,0,0,1,520.803,150.357)">
            <path d="M0,59.926C-1.85,58.93 -3.273,56.795 -3.273,53.947C-3.273,50.105 -0.284,46.973 3.701,46.973C5.125,46.973 6.406,47.4 7.402,47.969C14.662,52.809 22.206,55.229 29.038,55.229C36.44,55.229 40.711,52.097 40.711,47.115L40.711,46.831C40.711,40.994 32.739,39.002 23.914,36.297C12.811,33.166 0.427,28.612 0.427,14.234L0.427,13.949C0.427,-0.285 12.242,-8.968 27.188,-8.968C35.159,-8.968 43.558,-6.691 50.817,-2.847C53.236,-1.566 54.945,0.712 54.945,3.7C54.945,7.686 51.813,10.675 47.828,10.675C46.404,10.675 45.55,10.391 44.412,9.822C38.291,6.69 32.027,4.697 26.761,4.697C20.071,4.697 16.228,7.829 16.228,12.099L16.228,12.384C16.228,17.935 24.341,20.213 33.166,23.059C44.127,26.476 56.511,31.457 56.511,44.98L56.511,45.265C56.511,61.065 44.27,68.894 28.611,68.894C19.075,68.894 8.683,65.905 0,59.926" style="fill:rgb(80,79,77);fill-rule:nonzero;"/>
        </g>
        <g transform="matrix(1,0,0,1,590.695,209.998)">
            <path d="M0,-88.252C0,-92.95 3.7,-96.793 8.54,-96.793C13.38,-96.793 17.224,-92.95 17.224,-88.252L17.224,-55.798C22.062,-62.773 29.037,-68.894 40.709,-68.894C57.648,-68.894 67.47,-57.506 67.47,-40.14L67.47,0.001C67.47,4.841 63.77,8.541 58.93,8.541C54.09,8.541 50.246,4.841 50.246,0.001L50.246,-34.874C50.246,-46.545 44.41,-53.236 34.162,-53.236C24.198,-53.236 17.224,-46.261 17.224,-34.589L17.224,0.001C17.224,4.841 13.38,8.541 8.54,8.541C3.843,8.541 0,4.841 0,0.001L0,-88.252Z" style="fill:rgb(80,79,77);fill-rule:nonzero;"/>
        </g>
        <g transform="matrix(1,0,0,1,725.35,128.579)">
            <path d="M0,78.857C25.194,78.857 41.279,61.776 41.279,39.712L41.279,39.428C41.279,17.365 25.194,-0.001 0,-0.001L-23.344,-0.001L-23.344,78.857L0,78.857ZM-34.589,-4.699C-34.589,-7.83 -32.027,-10.392 -29.038,-10.392L0,-10.392C31.315,-10.392 52.951,11.102 52.951,39.143L52.951,39.428C52.951,67.469 31.315,89.249 0,89.249L-29.038,89.249C-32.027,89.249 -34.589,86.686 -34.589,83.554L-34.589,-4.699Z" style="fill:rgb(0,112,239);fill-rule:nonzero;"/>
        </g>
        <g transform="matrix(1,0,0,1,849.901,185.231)">
            <path d="M0,-8.257C-1.139,-21.637 -8.824,-33.309 -23.485,-33.309C-36.297,-33.309 -45.977,-22.633 -47.399,-8.257L0,-8.257ZM-21.778,34.304C-41.991,34.304 -58.502,18.789 -58.502,-3.986L-58.502,-4.271C-58.502,-25.48 -43.557,-42.561 -23.201,-42.561C-1.423,-42.561 10.961,-24.768 10.961,-5.267C10.961,-2.278 8.541,-0.143 5.837,-0.143L-47.399,-0.143C-45.834,15.8 -34.589,24.767 -21.493,24.767C-12.383,24.767 -5.693,21.209 -0.284,16.226C0.57,15.515 1.566,14.946 2.848,14.946C5.552,14.946 7.687,17.08 7.687,19.642C7.687,20.924 7.117,22.205 5.979,23.201C-0.996,29.891 -9.251,34.304 -21.778,34.304" style="fill:rgb(0,112,239);fill-rule:nonzero;"/>
        </g>
        <g transform="matrix(1,0,0,1,871.965,152.207)">
            <path d="M0,57.792C-0.996,57.08 -1.992,55.656 -1.992,53.806C-1.992,51.244 0.142,49.108 2.847,49.108C3.843,49.108 4.84,49.394 5.552,49.963C13.096,55.088 20.924,57.792 28.896,57.792C37.721,57.792 44.127,53.236 44.127,46.119L44.127,45.835C44.127,38.433 35.443,35.586 25.765,32.882C14.234,29.607 1.424,25.622 1.424,12.1L1.424,11.815C1.424,-0.854 11.957,-9.252 26.476,-9.252C34.305,-9.252 42.846,-6.833 49.963,-2.989C51.386,-2.135 52.667,-0.569 52.667,1.566C52.667,4.128 50.532,6.264 47.827,6.264C46.831,6.264 45.977,5.979 45.407,5.694C39.145,2.135 32.454,-0 26.191,-0C17.508,-0 11.957,4.555 11.957,10.676L11.957,10.96C11.957,17.936 21.066,20.64 30.889,23.629C42.275,27.046 54.518,31.458 54.518,44.696L54.518,44.981C54.518,58.931 42.987,67.044 28.326,67.044C18.647,67.044 7.972,63.485 0,57.792" style="fill:rgb(0,112,239);fill-rule:nonzero;"/>
        </g>
        <g transform="matrix(1,0,0,1,942.567,212.986)">
            <path d="M0,-94.23C0,-97.219 2.42,-99.782 5.409,-99.782C8.541,-99.782 10.961,-97.219 10.961,-94.23L10.961,-26.759L50.816,-67.327C52.098,-68.751 53.379,-69.462 55.087,-69.462C58.076,-69.462 60.069,-67.043 60.069,-64.338C60.069,-62.63 59.357,-61.491 57.934,-60.068L33.878,-36.439L60.212,-3.273C61.208,-1.992 61.635,-0.996 61.635,0.428C61.635,3.417 59.357,5.552 56.368,5.552C54.375,5.552 53.095,4.841 51.671,2.99L26.191,-29.179L10.961,-14.091L10.961,0C10.961,3.132 8.684,5.552 5.552,5.552C2.42,5.552 0,3.132 0,0L0,-94.23Z" style="fill:rgb(0,112,239);fill-rule:nonzero;"/>
        </g>
        <g transform="matrix(1,0,0,1,254.005,183.619)">
            <path d="M0,-20.458C-1.216,-22.791 -2.629,-25.412 -4.272,-28.018L-65.865,-14.556L-127.458,-1.093C-127.862,1.959 -128.051,4.929 -128.184,7.56L0,-20.458Z" style="fill:rgb(0,112,239);fill-rule:nonzero;"/>
        </g>
        <g transform="matrix(1,0,0,1,233.595,157.803)">
            <path d="M0,-17.583C-0.885,-17.991 -1.787,-18.354 -2.713,-18.671C-11.241,-21.592 -20.283,-20.158 -33.97,-17.989C-39.42,-17.125 -46.42,-15.539 -50.943,-14.351C-55.768,-13.495 -62.797,-12.013 -68.092,-10.53C-81.439,-6.793 -90.254,-4.324 -96.788,1.89C-97.496,2.564 -98.163,3.269 -98.795,4.009L-49.397,-6.787L0,-17.583Z" style="fill:rgb(0,112,239);fill-rule:nonzero;"/>
        </g>
        <g transform="matrix(1,0,0,1,246.595,170.098)">
            <path d="M0,-19.018C-2.142,-21.801 -4.388,-24.115 -6.796,-26.026L-71.358,-11.916L-115.826,-2.197C-117.22,0.543 -118.296,3.585 -119.083,7.008L-60.615,-5.77L0,-19.018Z" style="fill:rgb(0,112,239);fill-rule:nonzero;"/>
        </g>
        <g transform="matrix(1,0,0,1,139.838,212.854)">
            <path d="M0,21.567C6.49,25.347 15.034,26.108 25.488,23.823L97.241,8.141C107.638,5.77 115.141,1.602 119.467,-4.541L57.5,9.001L0,21.567Z" style="fill:rgb(0,112,239);fill-rule:nonzero;"/>
        </g>
        <g transform="matrix(1,0,0,1,145.995,201.523)">
            <path d="M0,-6.797C0.771,-7.998 1.646,-9.11 2.612,-10.118L-20.331,-5.104C-20.362,-2.155 -20.25,0.66 -20.019,3.321L-2.712,-0.461C-2.175,-2.68 -1.269,-4.818 0,-6.797" style="fill:rgb(0,112,239);fill-rule:nonzero;"/>
        </g>
        <g transform="matrix(1,0,0,1,160.496,219.615)">
            <path d="M0,-27.346C-0.019,-27.342 -0.039,-27.337 -0.058,-27.333C-3.685,-26.524 -6.785,-24.358 -8.791,-21.229C-10.807,-18.081 -11.479,-14.338 -10.681,-10.687C-9.882,-7.033 -7.709,-3.91 -4.564,-1.892C-1.416,0.127 2.327,0.799 5.977,0C5.999,-0.005 6.019,-0.01 6.042,-0.015C9.668,-0.825 12.765,-2.99 14.774,-6.119C16.791,-9.265 17.462,-13.008 16.664,-16.659L16.664,-16.661C15.866,-20.315 13.693,-23.437 10.548,-25.454C7.4,-27.472 3.656,-28.145 0,-27.346" style="fill:rgb(0,112,239);fill-rule:nonzero;"/>
        </g>
        <g transform="matrix(1,0,0,1,143.189,214.046)">
            <path d="M0,-3.669C-0.29,-4.993 -0.447,-6.326 -0.479,-7.653L-16.613,-4.127C-16.159,-1.162 -15.56,1.555 -14.861,3.984L1.355,0.44C0.77,-0.865 0.312,-2.238 0,-3.669" style="fill:rgb(0,112,239);fill-rule:nonzero;"/>
        </g>
        <g transform="matrix(1,0,0,1,152.272,225.985)">
            <path d="M0,-2.552C-1.879,-3.757 -3.52,-5.231 -4.892,-6.91L-22.266,-3.114C-21.234,-0.616 -20.098,1.388 -18.943,2.824C-18.525,3.344 -18.071,3.857 -17.593,4.358L4.332,-0.434C2.829,-0.965 1.375,-1.669 0,-2.552" style="fill:rgb(0,112,239);fill-rule:nonzero;"/>
        </g>
        <g transform="matrix(1,0,0,1,222.876,205.698)">
            <path d="M0,-27.349C-0.02,-27.344 -0.039,-27.34 -0.059,-27.335C-7.564,-25.661 -12.328,-18.206 -10.684,-10.687C-9.035,-3.147 -1.559,1.646 5.976,-0.003C5.999,-0.008 6.018,-0.012 6.038,-0.017C13.543,-1.692 18.307,-9.144 16.664,-16.663C15.012,-24.202 7.539,-28.995 0,-27.349" style="fill:rgb(0,112,239);fill-rule:nonzero;"/>
        </g>
        <g transform="matrix(0.976937,-0.213529,-0.213529,-0.976937,243.699,180.186)">
            <path d="M-1.134,1.046L16.461,1.046C16.105,3.791 15.609,6.568 14.971,9.343L-8.166,9.344C-5.148,7.257 -2.707,4.395 -1.134,1.046" style="fill:rgb(0,112,239);fill-rule:nonzero;"/>
        </g>
        <g transform="matrix(1,0,0,1,207.048,197.737)">
            <path d="M0,3.09C-0.641,1.72 -1.146,0.262 -1.483,-1.276C-1.754,-2.515 -1.901,-3.754 -1.945,-4.979L-24.49,-0.052C-23.966,1.167 -23.552,2.444 -23.262,3.769C-22.95,5.198 -22.793,6.638 -22.78,8.069L0,3.09Z" style="fill:rgb(0,112,239);fill-rule:nonzero;"/>
        </g>
        <g transform="matrix(1,0,0,1,239.88,193.711)">
            <path d="M0,13.638L22.413,8.74C22.643,8.08 22.839,7.426 23.001,6.783C23.459,4.958 23.644,2.649 23.544,0L6.01,3.833C4.965,7.598 2.873,11.002 0,13.638" style="fill:rgb(0,112,239);fill-rule:nonzero;"/>
        </g>
        <g transform="matrix(1,0,0,1,261.128,192.173)">
            <path d="M0,-11.66L-16.088,-8.144C-15.616,-7.013 -15.234,-5.827 -14.962,-4.589L-14.962,-4.587C-14.626,-3.049 -14.477,-1.513 -14.487,0L1.807,-3.561C1.42,-6.118 0.818,-8.828 0,-11.66" style="fill:rgb(0,112,239);fill-rule:nonzero;"/>
        </g>
        <g transform="matrix(1,0,0,1,179.813,177.834)">
            <path d="M0,15.245L25.791,9.608C26.612,6 28.385,2.682 30.887,0L-8.904,8.696C-7.591,9.201 -6.32,9.841 -5.109,10.617C-3.13,11.887 -1.415,13.452 0,15.245" style="fill:rgb(0,112,239);fill-rule:nonzero;"/>
        </g>
        <g transform="matrix(1,0,0,1,209.972,220.892)">
            <path d="M0,-15.498L-26.366,-9.735C-26.913,-7.636 -27.789,-5.613 -28.995,-3.733C-29.877,-2.357 -30.905,-1.11 -32.05,0L-12.357,-4.305L9.549,-9.093C5.84,-10.29 2.52,-12.512 0,-15.498" style="fill:rgb(0,112,239);fill-rule:nonzero;"/>
        </g>
        <g transform="matrix(1,0,0,1,290.886,204.15)">
            <path d="M0,-57.906C1.064,-48.102 2.764,-37.548 5.052,-26.75C7.038,-17.382 9.354,-8.361 11.895,0C17.55,-19.591 11.083,-40.392 0,-57.906" style="fill:rgb(0,112,239);fill-rule:nonzero;"/>
        </g>
        <g transform="matrix(1,0,0,1,98.3796,189.547)">
            <path d="M0,59.314C-1.073,50.246 -2.671,40.59 -4.76,30.731C-7.065,19.854 -9.816,9.447 -12.846,0C-15.973,20.997 -13.448,43.381 0,59.314" style="fill:rgb(0,112,239);fill-rule:nonzero;"/>
        </g>
        <g transform="matrix(1,0,0,1,300.693,139.311)">
            <path d="M0,70.719C-3.26,60.672 -6.155,49.736 -8.458,38.873C-11.191,25.974 -13.202,12.64 -14.186,0.499C-15.76,-1.658 -17.395,-3.752 -19.076,-5.77C-18.486,7.681 -16.363,23.473 -12.899,39.815C-10.1,53.025 -6.645,65.549 -2.827,76.489C-2.259,75.458 -1.716,74.412 -1.199,73.357C-0.771,72.482 -0.374,71.602 0,70.719" style="fill:rgb(0,112,239);fill-rule:nonzero;"/>
        </g>
        <g transform="matrix(1,0,0,1,86.926,249.7)">
            <path d="M0,-67.79C4.052,-56.249 7.647,-43.176 10.396,-30.207C12.793,-18.893 14.634,-7.244 15.715,3.641C16.667,4.529 17.657,5.395 18.695,6.229C19.323,6.732 19.961,7.224 20.605,7.707C19.697,-4.159 17.739,-17.46 14.837,-31.148C11.358,-47.566 6.867,-62.931 1.923,-75.497C1.208,-72.977 0.564,-70.402 0,-67.79" style="fill:rgb(0,112,239);fill-rule:nonzero;"/>
        </g>
        <g transform="matrix(1,0,0,1,267.989,165.536)">
            <path d="M0,21.972L0.292,24.803C0.291,24.813 0.293,24.823 0.295,24.832L0.477,27.075C0.67,30.374 0.476,33.249 -0.072,35.685C-0.072,35.685 -1.112,38.853 -1.432,40.024C-1.435,40.037 -1.439,40.049 -1.444,40.062L-2.07,41.33C-6.487,50.851 -15.676,57.273 -29.515,60.361C-29.618,60.383 -29.718,60.406 -29.822,60.429L-101.574,76.111C-115.592,79.173 -126.723,77.191 -134.762,70.33L-134.881,70.356L-135.856,69.441C-135.862,69.434 -135.868,69.426 -135.875,69.42L-138.915,66.033C-144.143,59.192 -147.336,46.161 -147.371,31.986L-147.493,32.012L-147.358,28.22C-147.357,27.949 -147.357,27.675 -147.345,27.396C-147.222,24.703 -147.073,21.521 -146.701,18.138L-146.803,18.16L-146.216,14.48L-145.944,12.765L-145.877,12.75C-145.26,9.467 -144.419,6.462 -143.339,3.701L-143.856,3.814L-141.156,-1.072C-141.152,-1.08 -141.148,-1.089 -141.144,-1.097L-140.586,-2.108L-140.467,-2.133C-138.821,-4.89 -136.916,-7.408 -134.688,-9.528C-127.236,-16.615 -117.936,-19.22 -103.857,-23.162C-98.403,-24.69 -91.17,-26.22 -86.424,-27.049C-81.985,-28.23 -74.777,-29.858 -69.163,-30.746C-54.722,-33.035 -45.185,-34.546 -35.459,-31.217C-32.545,-30.219 -29.762,-28.727 -27.117,-26.907L-26.998,-26.933L-26.071,-26.247L-21.56,-22.913L-22.073,-22.801C-19.938,-20.742 -17.921,-18.362 -15.993,-15.637L-15.929,-15.651L-14.965,-14.208L-14.952,-14.188L-12.895,-11.107L-12.997,-11.085C-11.246,-8.164 -9.781,-5.332 -8.544,-2.935C-8.416,-2.681 -8.3,-2.436 -8.188,-2.188L-6.512,1.2L-6.61,1.222C-5.431,3.806 -4.335,6.408 -3.423,9.018L-3.395,9.012L-2.72,11.119C-2.71,11.151 -2.699,11.184 -2.688,11.217L-2.686,11.227C-2.677,11.252 -2.668,11.276 -2.663,11.301L-1.84,13.878L-1.882,13.888C-1.085,16.698 -0.481,19.407 -0.075,21.987L0,21.972ZM16.103,14.374C12.395,-3.125 10.015,-21.427 9.726,-36.459C8.354,-37.955 6.962,-39.401 5.557,-40.79C-19.605,-65.673 -62.395,-79.457 -96.792,-71.781C-131.189,-64.106 -164.061,-33.439 -176.257,-0.22C-176.647,0.841 -177.023,1.918 -177.389,3.007C-171.525,16.89 -166.248,34.658 -162.523,52.231C-159.485,66.568 -157.339,81.443 -156.504,94.617C-151.027,98.108 -145,100.613 -138.388,101.014C-131.566,101.429 -124.761,100.195 -118.056,98.875C-99.35,95.195 -80.079,90.65 -61.525,86.265C-42.869,82.347 -23.493,78.268 -4.998,73.648C1.633,71.992 8.317,70.215 14.315,66.94C19.788,63.951 24.001,59.502 27.375,54.414C22.965,42.29 19.048,28.271 16.103,14.374" style="fill:rgb(0,112,239);fill-rule:nonzero;"/>
        </g>
    </g>
</svg>
